<?xml version="1.0" standalone="no"?>
<!DOCTYPE svg PUBLIC "-//W3C//DTD SVG 20010904//EN"
 "http://www.w3.org/TR/2001/REC-SVG-20010904/DTD/svg10.dtd">
<svg version="1.0" xmlns="http://www.w3.org/2000/svg"
 width="16.000000pt" height="16.000000pt" viewBox="0 0 16.000000 16.000000"
 preserveAspectRatio="xMidYMid meet">
<metadata>
Created by potrace 1.11, written by Peter Selinger 2001-2013
</metadata>
<g transform="translate(0.000000,16.000000) scale(0.010738,-0.010738)"
fill="#000000" stroke="none">
<path d="M464 1135 c-36 -55 -25 -163 18 -186 44 -24 85 63 66 143 -5 23 -14
48 -20 55 -17 21 -46 15 -64 -12z"/>
<path d="M995 1051 c-26 -11 -75 -57 -75 -70 0 -6 8 -15 19 -20 14 -8 23 -5
41 14 30 32 83 47 117 34 20 -7 28 -6 39 8 18 23 17 30 -2 37 -22 9 -115 6
-139 -3z"/>
<path d="M213 745 c-17 -7 -34 -23 -38 -35 -9 -28 -2 -34 23 -21 23 12 58 -22
169 -164 81 -103 129 -145 211 -183 51 -24 68 -27 172 -27 108 0 119 2 180 31
79 38 138 89 226 197 114 139 134 158 156 146 26 -14 34 -4 20 25 -13 30 -58
46 -92 34 -23 -9 -24 -10 -7 -23 16 -12 13 -16 -34 -59 -111 -100 -261 -150
-444 -150 -184 0 -333 50 -445 151 -51 45 -51 47 -30 58 22 12 22 12 -7 22
-22 8 -38 7 -60 -2z m228 -206 c163 -83 465 -83 629 1 23 12 44 19 47 17 10
-10 -124 -135 -176 -165 -106 -60 -259 -64 -365 -10 -59 30 -209 178 -181 178
3 0 24 -9 46 -21z"/>
</g>
</svg>
